<svg width="32" height="32" viewBox="0 0 32 32" fill="none" xmlns="http://www.w3.org/2000/svg">
<path d="M13 29.4336C13 29.7096 12.7762 29.9336 12.5 29.9336C12.2238 29.9336 12 29.7096 12 29.4336C12 29.1574 12.2238 28.9336 12.5 28.9336C12.7762 28.9336 13 29.1574 13 29.4336Z" fill="#2150A7"/>
<path d="M27 29.4336C27 29.7096 26.7762 29.9336 26.5 29.9336C26.2238 29.9336 26 29.7096 26 29.4336C26 29.1574 26.2238 28.9336 26.5 28.9336C26.7762 28.9336 27 29.1574 27 29.4336Z" fill="#2150A7"/>
<path d="M25 14.9336H28V25.9336H25V14.9336Z" fill="#2150A7"/>
<path d="M20 29.4336C20 29.7096 19.7762 29.9336 19.5 29.9336C19.2238 29.9336 19 29.7096 19 29.4336C19 29.1574 19.2238 28.9336 19.5 28.9336C19.7762 28.9336 20 29.1574 20 29.4336Z" fill="#2150A7"/>
<path d="M13 29.4336C13 29.7096 12.7762 29.9336 12.5 29.9336C12.2238 29.9336 12 29.7096 12 29.4336C12 29.1574 12.2238 28.9336 12.5 28.9336C12.7762 28.9336 13 29.1574 13 29.4336Z" fill="#2150A7"/>
<path d="M6 29.4336C6 29.7096 5.77617 29.9336 5.5 29.9336C5.22383 29.9336 5 29.7096 5 29.4336C5 29.1574 5.22383 28.9336 5.5 28.9336C5.77617 28.9336 6 29.1574 6 29.4336Z" fill="#2150A7"/>
<path d="M11 7.93359H14V25.9336H11V7.93359Z" fill="#2150A7"/>
<path d="M18 1.93359H21V25.9336H18V1.93359Z" fill="#2150A7"/>
<path d="M4 19.9336H7V25.9336H4V19.9336Z" fill="#2150A7"/>
<path d="M4 29.4336C4.00176 29.2629 4.03281 29.0938 4.09199 28.9336H1.5C1.22383 28.9336 1 29.1574 1 29.4336C1 29.7096 1.22383 29.9336 1.5 29.9336H4.09199C4.03281 29.7734 4.00176 29.6041 4 29.4336Z" fill="#2150A7"/>
<path d="M6.9082 28.9336C7.03105 29.2555 7.03105 29.6115 6.9082 29.9336H11.0922C10.9693 29.6115 10.9693 29.2555 11.0922 28.9336H6.9082Z" fill="#2150A7"/>
<path d="M6 29.4336C6 29.7096 5.77617 29.9336 5.5 29.9336C5.22383 29.9336 5 29.7096 5 29.4336C5 29.1574 5.22383 28.9336 5.5 28.9336C5.77617 28.9336 6 29.1574 6 29.4336Z" fill="#2150A7"/>
<path d="M20 29.4336C20 29.7096 19.7762 29.9336 19.5 29.9336C19.2238 29.9336 19 29.7096 19 29.4336C19 29.1574 19.2238 28.9336 19.5 28.9336C19.7762 28.9336 20 29.1574 20 29.4336Z" fill="#2150A7"/>
<path d="M18.0922 29.9336C17.9693 29.6115 17.9693 29.2555 18.0922 28.9336H13.9082C14.0311 29.2555 14.0311 29.6115 13.9082 29.9336H18.0922Z" fill="#2150A7"/>
<path d="M25.0922 29.9336C24.9693 29.6115 24.9693 29.2555 25.0922 28.9336H20.9082C21.0311 29.2555 21.0311 29.6115 20.9082 29.9336H25.0922Z" fill="#2150A7"/>
<path d="M27 29.4336C27 29.7096 26.7762 29.9336 26.5 29.9336C26.2238 29.9336 26 29.7096 26 29.4336C26 29.1574 26.2238 28.9336 26.5 28.9336C26.7762 28.9336 27 29.1574 27 29.4336Z" fill="#2150A7"/>
<path d="M30.5002 28.9336H27.9082C28.0311 29.2555 28.0311 29.6115 27.9082 29.9336H30.5002C30.7764 29.9336 31.0002 29.7096 31.0002 29.4336C31.0002 29.1574 30.7764 28.9336 30.5002 28.9336Z" fill="#2150A7"/>
</svg>
